<mxfile host="Electron" modified="2024-06-02T16:40:14.928Z" agent="Mozilla/5.0 (Macintosh; Intel Mac OS X 10_15_7) AppleWebKit/537.36 (KHTML, like Gecko) draw.io/24.4.8 Chrome/124.0.6367.207 Electron/30.0.6 Safari/537.36" etag="I8_rS_45AbxDioqIKU5X" version="24.4.8" type="device">
  <diagram name="Page-1" id="e7e014a7-5840-1c2e-5031-d8a46d1fe8dd">
    <mxGraphModel dx="1114" dy="774" grid="1" gridSize="10" guides="1" tooltips="1" connect="1" arrows="1" fold="1" page="1" pageScale="1" pageWidth="1169" pageHeight="826" background="none" math="0" shadow="0">
      <root>
        <mxCell id="0" />
        <mxCell id="1" parent="0" />
        <mxCell id="9L3R9ktRO2dcpBMVk1R0-45" style="edgeStyle=orthogonalEdgeStyle;rounded=0;orthogonalLoop=1;jettySize=auto;html=1;" edge="1" parent="1" source="9L3R9ktRO2dcpBMVk1R0-43" target="9L3R9ktRO2dcpBMVk1R0-44">
          <mxGeometry relative="1" as="geometry" />
        </mxCell>
        <mxCell id="9L3R9ktRO2dcpBMVk1R0-43" value="создан заказ" style="shape=note;whiteSpace=wrap;size=17" vertex="1" parent="1">
          <mxGeometry x="140" y="100" width="100" height="50" as="geometry" />
        </mxCell>
        <mxCell id="9L3R9ktRO2dcpBMVk1R0-53" style="edgeStyle=orthogonalEdgeStyle;rounded=0;orthogonalLoop=1;jettySize=auto;html=1;entryX=0.5;entryY=0;entryDx=0;entryDy=0;" edge="1" parent="1" source="9L3R9ktRO2dcpBMVk1R0-44" target="9L3R9ktRO2dcpBMVk1R0-48">
          <mxGeometry relative="1" as="geometry" />
        </mxCell>
        <mxCell id="9L3R9ktRO2dcpBMVk1R0-44" value="" style="ellipse;whiteSpace=wrap;html=1;aspect=fixed;" vertex="1" parent="1">
          <mxGeometry x="390" y="85" width="80" height="80" as="geometry" />
        </mxCell>
        <mxCell id="9L3R9ktRO2dcpBMVk1R0-52" style="edgeStyle=orthogonalEdgeStyle;rounded=0;orthogonalLoop=1;jettySize=auto;html=1;entryX=0;entryY=0.5;entryDx=0;entryDy=0;" edge="1" parent="1" source="9L3R9ktRO2dcpBMVk1R0-48" target="9L3R9ktRO2dcpBMVk1R0-51">
          <mxGeometry relative="1" as="geometry" />
        </mxCell>
        <mxCell id="9L3R9ktRO2dcpBMVk1R0-58" style="edgeStyle=orthogonalEdgeStyle;rounded=0;orthogonalLoop=1;jettySize=auto;html=1;entryX=0.5;entryY=0;entryDx=0;entryDy=0;" edge="1" parent="1" source="9L3R9ktRO2dcpBMVk1R0-48" target="9L3R9ktRO2dcpBMVk1R0-57">
          <mxGeometry relative="1" as="geometry" />
        </mxCell>
        <mxCell id="9L3R9ktRO2dcpBMVk1R0-48" value="Проверка стоп-листа" style="rhombus;whiteSpace=wrap;html=1;" vertex="1" parent="1">
          <mxGeometry x="370" y="240" width="120" height="120" as="geometry" />
        </mxCell>
        <mxCell id="9L3R9ktRO2dcpBMVk1R0-51" value="Заказ отменен" style="rounded=0;whiteSpace=wrap;html=1;" vertex="1" parent="1">
          <mxGeometry x="640" y="270" width="120" height="60" as="geometry" />
        </mxCell>
        <mxCell id="9L3R9ktRO2dcpBMVk1R0-54" value="Есть позиции в стоп-листе" style="text;html=1;align=center;verticalAlign=middle;whiteSpace=wrap;rounded=0;" vertex="1" parent="1">
          <mxGeometry x="525" y="260" width="85" height="30" as="geometry" />
        </mxCell>
        <mxCell id="9L3R9ktRO2dcpBMVk1R0-60" style="edgeStyle=orthogonalEdgeStyle;rounded=0;orthogonalLoop=1;jettySize=auto;html=1;entryX=0;entryY=0.5;entryDx=0;entryDy=0;" edge="1" parent="1" source="9L3R9ktRO2dcpBMVk1R0-57" target="9L3R9ktRO2dcpBMVk1R0-59">
          <mxGeometry relative="1" as="geometry" />
        </mxCell>
        <mxCell id="9L3R9ktRO2dcpBMVk1R0-68" style="edgeStyle=orthogonalEdgeStyle;rounded=0;orthogonalLoop=1;jettySize=auto;html=1;entryX=0.5;entryY=0;entryDx=0;entryDy=0;" edge="1" parent="1" source="9L3R9ktRO2dcpBMVk1R0-57" target="9L3R9ktRO2dcpBMVk1R0-66">
          <mxGeometry relative="1" as="geometry" />
        </mxCell>
        <mxCell id="9L3R9ktRO2dcpBMVk1R0-57" value="Списание денег" style="rhombus;whiteSpace=wrap;html=1;" vertex="1" parent="1">
          <mxGeometry x="370" y="430" width="120" height="120" as="geometry" />
        </mxCell>
        <mxCell id="9L3R9ktRO2dcpBMVk1R0-59" value="Заказ отменен" style="rounded=0;whiteSpace=wrap;html=1;" vertex="1" parent="1">
          <mxGeometry x="640" y="460" width="120" height="60" as="geometry" />
        </mxCell>
        <mxCell id="9L3R9ktRO2dcpBMVk1R0-61" value="Недостаточно средств на карте" style="text;html=1;align=center;verticalAlign=middle;whiteSpace=wrap;rounded=0;" vertex="1" parent="1">
          <mxGeometry x="520" y="450" width="85" height="30" as="geometry" />
        </mxCell>
        <mxCell id="9L3R9ktRO2dcpBMVk1R0-62" value="Все позиции доступны" style="text;html=1;align=center;verticalAlign=middle;whiteSpace=wrap;rounded=0;" vertex="1" parent="1">
          <mxGeometry x="440" y="380" width="110" height="30" as="geometry" />
        </mxCell>
        <mxCell id="9L3R9ktRO2dcpBMVk1R0-64" value="" style="ellipse;whiteSpace=wrap;html=1;aspect=fixed;" vertex="1" parent="1">
          <mxGeometry x="390" y="740" width="80" height="80" as="geometry" />
        </mxCell>
        <mxCell id="9L3R9ktRO2dcpBMVk1R0-65" value="" style="ellipse;whiteSpace=wrap;html=1;aspect=fixed;fillColor=#1ba1e2;fontColor=#ffffff;strokeColor=#006EAF;" vertex="1" parent="1">
          <mxGeometry x="410" y="760" width="40" height="40" as="geometry" />
        </mxCell>
        <mxCell id="9L3R9ktRO2dcpBMVk1R0-69" value="" style="edgeStyle=orthogonalEdgeStyle;rounded=0;orthogonalLoop=1;jettySize=auto;html=1;" edge="1" parent="1" source="9L3R9ktRO2dcpBMVk1R0-66" target="9L3R9ktRO2dcpBMVk1R0-65">
          <mxGeometry relative="1" as="geometry" />
        </mxCell>
        <mxCell id="9L3R9ktRO2dcpBMVk1R0-66" value="Заказ размещен в ЛК ресторана" style="rounded=0;whiteSpace=wrap;html=1;" vertex="1" parent="1">
          <mxGeometry x="370" y="620" width="120" height="60" as="geometry" />
        </mxCell>
        <mxCell id="9L3R9ktRO2dcpBMVk1R0-70" value="Деньги есть" style="text;html=1;align=center;verticalAlign=middle;whiteSpace=wrap;rounded=0;" vertex="1" parent="1">
          <mxGeometry x="440" y="560" width="85" height="30" as="geometry" />
        </mxCell>
      </root>
    </mxGraphModel>
  </diagram>
</mxfile>
